<?xml version="1.0" encoding="UTF-8" standalone="no"?>
<!DOCTYPE svg PUBLIC "-//W3C//DTD SVG 1.1//EN" "http://www.w3.org/Graphics/SVG/1.1/DTD/svg11.dtd">
<!-- Created with Vectornator (http://vectornator.io/) -->
<svg height="100%" stroke-miterlimit="10" style="fill-rule:nonzero;clip-rule:evenodd;stroke-linecap:round;stroke-linejoin:round;" version="1.1" viewBox="0 0 595.35 595.35" width="100%" xml:space="preserve" xmlns="http://www.w3.org/2000/svg" xmlns:xlink="http://www.w3.org/1999/xlink">
<defs/>
<g id="Layer-1">
<g opacity="1">
<path d="M142.095 24.8073L63.885 79.2275L297.921 243.083L375.834 188.365L142.095 24.8073Z" fill="#88c7a7" fill-rule="nonzero" opacity="1" stroke="#000000" stroke-linecap="butt" stroke-linejoin="round" stroke-width="2"/>
<path d="M375.834 188.365L297.921 243.083L297.921 352.22L375.834 297.503L375.834 188.365Z" fill="#78b898" fill-rule="nonzero" opacity="1" stroke="#000000" stroke-linecap="butt" stroke-linejoin="round" stroke-width="2"/>
<path d="M375.801 297.649L297.888 352.366L297.888 570.642L375.801 515.924L375.801 297.649Z" fill="#78b898" fill-rule="nonzero" opacity="1" stroke="#000000" stroke-linecap="butt" stroke-linejoin="round" stroke-width="2"/>
<path d="M63.799 79.283L63.799 297.627L63.9865 297.752L63.9865 406.846C64.1691 406.846 297.862 570.596 297.862 570.596L297.674 352.221L219.893 297.783L219.893 297.689L297.862 352.221L297.674 243.033C297.674 243.033 63.9816 79.283 63.799 79.283Z" fill="#b2fbd6" fill-rule="nonzero" opacity="1" stroke="#070807" stroke-linecap="butt" stroke-linejoin="round" stroke-width="2"/>
<path d="M219.899 297.649L297.85 352.231" fill="#a4edc8" fill-rule="nonzero" opacity="1" stroke="#070807" stroke-linecap="butt" stroke-linejoin="round" stroke-width="2"/>
<path d="M141.948 243.066L219.899 297.649" fill="none" opacity="1" stroke="#070807" stroke-linecap="butt" stroke-linejoin="round" stroke-width="2.5"/>
<path d="M141.948 352.231L219.899 406.813" fill="none" opacity="1" stroke="#070807" stroke-linecap="butt" stroke-linejoin="round" stroke-width="2.5"/>
<path d="M63.9963 297.649L141.948 352.231" fill="none" opacity="1" stroke="#070807" stroke-linecap="butt" stroke-linejoin="round" stroke-width="2.5"/>
<g opacity="1">
<path d="M453.638 24.7085L375.725 79.1286L297.812 133.846L219.899 188.266L269.561 223.06L297.812 242.984L375.725 188.266L453.638 133.846L531.551 79.1286L453.638 24.7085Z" fill="#ec716a" fill-rule="nonzero" opacity="1" stroke="#060403" stroke-linecap="butt" stroke-linejoin="round" stroke-width="2"/>
<path d="M219.899 188.266L219.899 264.99L219.899 297.404L269.561 332.197L297.812 352.122L297.812 242.984L219.899 188.266Z" fill="#fb9b8c" fill-rule="nonzero" opacity="1" stroke="#000000" stroke-linecap="butt" stroke-linejoin="round" stroke-width="2"/>
<path d="M531.551 79.1286L453.638 133.846L375.725 188.266L297.812 242.984L297.812 319.41L297.812 352.122L375.725 297.404L375.725 406.542L375.725 515.977L453.638 461.259L453.638 352.122L453.638 242.984L531.551 188.266L531.551 79.1286Z" fill="#d65049" fill-rule="nonzero" opacity="1" stroke="#000000" stroke-linecap="butt" stroke-linejoin="round" stroke-width="2"/>
</g>
</g>
</g>
</svg>
